<svg width="242" height="78" viewBox="0 0 242 78" fill="none" xmlns="http://www.w3.org/2000/svg">
<g filter="url(#filter0_dd_53097_27354)">
<g clip-path="url(#clip0_53097_27354)">
<rect x="11" y="7" width="220" height="56" rx="16" fill="#B68509"/>
<path d="M48.5 43.725V27.5H29.5V35.5H28V27.5C28 27.0833 28.1458 26.7292 28.4375 26.4375C28.7292 26.1458 29.0833 26 29.5 26H48.5C48.9167 26 49.2708 26.1458 49.5625 26.4375C49.8542 26.7292 50 27.0833 50 27.5V42C50 42.4333 49.8583 42.8125 49.575 43.1375C49.2917 43.4625 48.9333 43.6583 48.5 43.725V43.725ZM36 36.975C34.9 36.975 34 36.625 33.3 35.925C32.6 35.225 32.25 34.325 32.25 33.225C32.25 32.125 32.6 31.225 33.3 30.525C34 29.825 34.9 29.475 36 29.475C37.1 29.475 38 29.825 38.7 30.525C39.4 31.225 39.75 32.125 39.75 33.225C39.75 34.325 39.4 35.225 38.7 35.925C38 36.625 37.1 36.975 36 36.975ZM36 35.475C36.65 35.475 37.1875 35.2625 37.6125 34.8375C38.0375 34.4125 38.25 33.875 38.25 33.225C38.25 32.575 38.0375 32.0375 37.6125 31.6125C37.1875 31.1875 36.65 30.975 36 30.975C35.35 30.975 34.8125 31.1875 34.3875 31.6125C33.9625 32.0375 33.75 32.575 33.75 33.225C33.75 33.875 33.9625 34.4125 34.3875 34.8375C34.8125 35.2625 35.35 35.475 36 35.475V35.475ZM28 45V42.65C28 42.0167 28.1583 41.475 28.475 41.025C28.7917 40.575 29.2 40.2333 29.7 40C30.8167 39.5 31.8875 39.125 32.9125 38.875C33.9375 38.625 34.9667 38.5 36 38.5C37.0333 38.5 38.0583 38.6292 39.075 38.8875C40.0917 39.1458 41.1583 39.5167 42.275 40C42.7917 40.2333 43.2083 40.575 43.525 41.025C43.8417 41.475 44 42.0167 44 42.65V45H28ZM29.5 43.5H42.5V42.65C42.5 42.3833 42.4208 42.1292 42.2625 41.8875C42.1042 41.6458 41.9083 41.4667 41.675 41.35C40.6083 40.8333 39.6333 40.4792 38.75 40.2875C37.8667 40.0958 36.95 40 36 40C35.05 40 34.125 40.0958 33.225 40.2875C32.325 40.4792 31.35 40.8333 30.3 41.35C30.0667 41.4667 29.875 41.6458 29.725 41.8875C29.575 42.1292 29.5 42.3833 29.5 42.65V43.5Z" fill="#E8DEF8"/>
<path d="M67.0801 40H64.9541L64.9678 38.6396H67.0801C67.6953 38.6396 68.2103 38.5052 68.625 38.2363C69.0443 37.9674 69.3587 37.5824 69.5684 37.0811C69.7826 36.5798 69.8896 35.9827 69.8896 35.29V34.75C69.8896 34.2122 69.8281 33.736 69.7051 33.3213C69.5866 32.9066 69.4089 32.5579 69.1719 32.2754C68.9395 31.9928 68.6523 31.7786 68.3105 31.6328C67.9733 31.487 67.5837 31.4141 67.1416 31.4141H64.9131V30.0469H67.1416C67.8024 30.0469 68.4062 30.1585 68.9531 30.3818C69.5 30.6006 69.9717 30.9173 70.3682 31.332C70.7692 31.7467 71.0768 32.2435 71.291 32.8223C71.5052 33.401 71.6123 34.0482 71.6123 34.7637V35.29C71.6123 36.0055 71.5052 36.6527 71.291 37.2314C71.0768 37.8102 70.7692 38.307 70.3682 38.7217C69.9671 39.1318 69.4886 39.4486 68.9326 39.6719C68.3812 39.8906 67.7637 40 67.0801 40ZM65.9043 30.0469V40H64.1885V30.0469H65.9043ZM72.9564 36.3838V36.2266C72.9564 35.6934 73.0339 35.1989 73.1889 34.7432C73.3438 34.2829 73.5671 33.8841 73.8588 33.5469C74.155 33.2051 74.515 32.9408 74.9389 32.7539C75.3673 32.5625 75.8503 32.4668 76.3881 32.4668C76.9304 32.4668 77.4135 32.5625 77.8373 32.7539C78.2657 32.9408 78.628 33.2051 78.9242 33.5469C79.2204 33.8841 79.446 34.2829 79.601 34.7432C79.7559 35.1989 79.8334 35.6934 79.8334 36.2266V36.3838C79.8334 36.917 79.7559 37.4115 79.601 37.8672C79.446 38.3229 79.2204 38.7217 78.9242 39.0635C78.628 39.4007 78.268 39.665 77.8441 39.8564C77.4203 40.0433 76.9395 40.1367 76.4018 40.1367C75.8594 40.1367 75.3741 40.0433 74.9457 39.8564C74.5219 39.665 74.1618 39.4007 73.8656 39.0635C73.5694 38.7217 73.3438 38.3229 73.1889 37.8672C73.0339 37.4115 72.9564 36.917 72.9564 36.3838ZM74.6039 36.2266V36.3838C74.6039 36.7165 74.6381 37.0309 74.7064 37.3271C74.7748 37.6234 74.8819 37.8831 75.0277 38.1064C75.1736 38.3298 75.3604 38.5052 75.5883 38.6328C75.8161 38.7604 76.0873 38.8242 76.4018 38.8242C76.7071 38.8242 76.9714 38.7604 77.1947 38.6328C77.4226 38.5052 77.6094 38.3298 77.7553 38.1064C77.9011 37.8831 78.0082 37.6234 78.0766 37.3271C78.1495 37.0309 78.1859 36.7165 78.1859 36.3838V36.2266C78.1859 35.8984 78.1495 35.5885 78.0766 35.2969C78.0082 35.0007 77.8988 34.7386 77.7484 34.5107C77.6026 34.2829 77.4158 34.1051 77.1879 33.9775C76.9646 33.8454 76.698 33.7793 76.3881 33.7793C76.0782 33.7793 75.8093 33.8454 75.5814 33.9775C75.3581 34.1051 75.1736 34.2829 75.0277 34.5107C74.8819 34.7386 74.7748 35.0007 74.7064 35.2969C74.6381 35.5885 74.6039 35.8984 74.6039 36.2266ZM83.324 38.3594L85.033 32.6035H86.0857L85.7986 34.3262L84.076 40H83.1326L83.324 38.3594ZM82.3191 32.6035L83.6521 38.3867L83.7615 40H82.7088L80.7059 32.6035H82.3191ZM87.6854 38.3184L88.9773 32.6035H90.5838L88.5877 40H87.535L87.6854 38.3184ZM86.2635 32.6035L87.952 38.291L88.1639 40H87.2205L85.4773 34.3193L85.1902 32.6035H86.2635ZM93.4387 34.1826V40H91.7912V32.6035H93.343L93.4387 34.1826ZM93.1447 36.0283L92.6115 36.0215C92.6161 35.4974 92.689 35.0166 92.8303 34.5791C92.9761 34.1416 93.1766 33.7656 93.4318 33.4512C93.6916 33.1367 94.0015 32.8952 94.3615 32.7266C94.7215 32.5534 95.1226 32.4668 95.5646 32.4668C95.9201 32.4668 96.2414 32.5169 96.5285 32.6172C96.8202 32.7129 97.0686 32.8701 97.2736 33.0889C97.4833 33.3076 97.6428 33.5924 97.7521 33.9434C97.8615 34.2897 97.9162 34.7158 97.9162 35.2217V40H96.2619V35.2148C96.2619 34.8594 96.2095 34.5791 96.1047 34.374C96.0044 34.1644 95.8563 34.0163 95.6604 33.9297C95.4689 33.8385 95.2297 33.793 94.9426 33.793C94.66 33.793 94.4071 33.8522 94.1838 33.9707C93.9605 34.0892 93.7714 34.251 93.6164 34.4561C93.466 34.6611 93.3498 34.8981 93.2678 35.167C93.1857 35.4359 93.1447 35.723 93.1447 36.0283ZM101.462 29.5V40H99.8072V29.5H101.462ZM103.052 36.3838V36.2266C103.052 35.6934 103.129 35.1989 103.284 34.7432C103.439 34.2829 103.662 33.8841 103.954 33.5469C104.25 33.2051 104.61 32.9408 105.034 32.7539C105.463 32.5625 105.946 32.4668 106.483 32.4668C107.026 32.4668 107.509 32.5625 107.933 32.7539C108.361 32.9408 108.723 33.2051 109.02 33.5469C109.316 33.8841 109.541 34.2829 109.696 34.7432C109.851 35.1989 109.929 35.6934 109.929 36.2266V36.3838C109.929 36.917 109.851 37.4115 109.696 37.8672C109.541 38.3229 109.316 38.7217 109.02 39.0635C108.723 39.4007 108.363 39.665 107.939 39.8564C107.516 40.0433 107.035 40.1367 106.497 40.1367C105.955 40.1367 105.469 40.0433 105.041 39.8564C104.617 39.665 104.257 39.4007 103.961 39.0635C103.665 38.7217 103.439 38.3229 103.284 37.8672C103.129 37.4115 103.052 36.917 103.052 36.3838ZM104.699 36.2266V36.3838C104.699 36.7165 104.733 37.0309 104.802 37.3271C104.87 37.6234 104.977 37.8831 105.123 38.1064C105.269 38.3298 105.456 38.5052 105.684 38.6328C105.911 38.7604 106.183 38.8242 106.497 38.8242C106.802 38.8242 107.067 38.7604 107.29 38.6328C107.518 38.5052 107.705 38.3298 107.851 38.1064C107.996 37.8831 108.104 37.6234 108.172 37.3271C108.245 37.0309 108.281 36.7165 108.281 36.3838V36.2266C108.281 35.8984 108.245 35.5885 108.172 35.2969C108.104 35.0007 107.994 34.7386 107.844 34.5107C107.698 34.2829 107.511 34.1051 107.283 33.9775C107.06 33.8454 106.793 33.7793 106.483 33.7793C106.174 33.7793 105.905 33.8454 105.677 33.9775C105.453 34.1051 105.269 34.2829 105.123 34.5107C104.977 34.7386 104.87 35.0007 104.802 35.2969C104.733 35.5885 104.699 35.8984 104.699 36.2266ZM115.579 38.5166V34.9893C115.579 34.7249 115.532 34.4971 115.436 34.3057C115.34 34.1143 115.194 33.9661 114.998 33.8613C114.807 33.7565 114.565 33.7041 114.274 33.7041C114.005 33.7041 113.773 33.7497 113.577 33.8408C113.381 33.932 113.228 34.055 113.119 34.21C113.009 34.3649 112.954 34.5404 112.954 34.7363H111.314C111.314 34.4447 111.385 34.1621 111.526 33.8887C111.667 33.6152 111.872 33.3714 112.141 33.1572C112.41 32.943 112.731 32.7744 113.105 32.6514C113.479 32.5283 113.898 32.4668 114.363 32.4668C114.919 32.4668 115.411 32.5602 115.839 32.7471C116.272 32.9339 116.612 33.2165 116.858 33.5947C117.108 33.9684 117.234 34.4378 117.234 35.0029V38.291C117.234 38.6283 117.257 38.9313 117.302 39.2002C117.352 39.4645 117.423 39.6947 117.514 39.8906V40H115.826C115.748 39.8223 115.687 39.5967 115.641 39.3232C115.6 39.0452 115.579 38.7764 115.579 38.5166ZM115.819 35.502L115.832 36.5205H114.65C114.344 36.5205 114.076 36.5501 113.843 36.6094C113.611 36.6641 113.417 36.7461 113.262 36.8555C113.107 36.9648 112.991 37.097 112.913 37.252C112.836 37.4069 112.797 37.5824 112.797 37.7783C112.797 37.9743 112.843 38.1543 112.934 38.3184C113.025 38.4779 113.157 38.6032 113.33 38.6943C113.508 38.7855 113.722 38.8311 113.973 38.8311C114.31 38.8311 114.604 38.7627 114.855 38.626C115.11 38.4847 115.311 38.3138 115.456 38.1133C115.602 37.9082 115.68 37.7145 115.689 37.5322L116.222 38.2637C116.167 38.4505 116.074 38.651 115.942 38.8652C115.81 39.0794 115.636 39.2845 115.422 39.4805C115.213 39.6719 114.96 39.8291 114.663 39.9521C114.372 40.0752 114.035 40.1367 113.652 40.1367C113.169 40.1367 112.738 40.041 112.36 39.8496C111.982 39.6536 111.685 39.3916 111.471 39.0635C111.257 38.7308 111.15 38.3548 111.15 37.9355C111.15 37.5436 111.223 37.1973 111.369 36.8965C111.519 36.5911 111.738 36.3359 112.025 36.1309C112.316 35.9258 112.672 35.7708 113.091 35.666C113.51 35.5566 113.989 35.502 114.527 35.502H115.819ZM123.568 38.4688V29.5H125.222V40H123.725L123.568 38.4688ZM118.756 36.3838V36.2402C118.756 35.6797 118.822 35.1693 118.954 34.709C119.086 34.2441 119.277 33.8454 119.528 33.5127C119.779 33.1755 120.084 32.918 120.444 32.7402C120.804 32.5579 121.21 32.4668 121.661 32.4668C122.108 32.4668 122.499 32.5534 122.837 32.7266C123.174 32.8997 123.461 33.1481 123.698 33.4717C123.935 33.7907 124.124 34.1735 124.265 34.6201C124.407 35.0622 124.507 35.5544 124.566 36.0967V36.5547C124.507 37.0833 124.407 37.5664 124.265 38.0039C124.124 38.4414 123.935 38.8197 123.698 39.1387C123.461 39.4577 123.172 39.7038 122.83 39.877C122.493 40.0501 122.098 40.1367 121.647 40.1367C121.201 40.1367 120.797 40.0433 120.437 39.8564C120.082 39.6696 119.779 39.4076 119.528 39.0703C119.277 38.7331 119.086 38.3366 118.954 37.8809C118.822 37.4206 118.756 36.9215 118.756 36.3838ZM120.403 36.2402V36.3838C120.403 36.721 120.433 37.0355 120.492 37.3271C120.556 37.6188 120.654 37.8763 120.786 38.0996C120.918 38.3184 121.089 38.4915 121.299 38.6191C121.513 38.7422 121.768 38.8037 122.064 38.8037C122.438 38.8037 122.746 38.7217 122.987 38.5576C123.229 38.3936 123.418 38.1725 123.554 37.8945C123.696 37.612 123.791 37.2975 123.842 36.9512V35.7139C123.814 35.445 123.757 35.1943 123.671 34.9619C123.589 34.7295 123.477 34.5267 123.336 34.3535C123.194 34.1758 123.019 34.0391 122.809 33.9434C122.604 33.8431 122.36 33.793 122.078 33.793C121.777 33.793 121.522 33.8568 121.312 33.9844C121.103 34.112 120.929 34.2874 120.793 34.5107C120.661 34.734 120.563 34.9938 120.499 35.29C120.435 35.5863 120.403 35.903 120.403 36.2402ZM134.576 36.2881H131.985V34.9277H134.576C135.027 34.9277 135.392 34.8548 135.67 34.709C135.948 34.5632 136.15 34.3626 136.278 34.1074C136.41 33.8477 136.476 33.5514 136.476 33.2188C136.476 32.9043 136.41 32.6104 136.278 32.3369C136.15 32.0589 135.948 31.8356 135.67 31.667C135.392 31.4984 135.027 31.4141 134.576 31.4141H132.511V40H130.796V30.0469H134.576C135.346 30.0469 136 30.1836 136.538 30.457C137.08 30.7259 137.492 31.0996 137.775 31.5781C138.058 32.0521 138.199 32.5944 138.199 33.2051C138.199 33.8477 138.058 34.3991 137.775 34.8594C137.492 35.3197 137.08 35.6729 136.538 35.9189C136 36.165 135.346 36.2881 134.576 36.2881ZM141.327 34.0117V40H139.68V32.6035H141.252L141.327 34.0117ZM143.59 32.5557L143.576 34.0869C143.476 34.0687 143.367 34.055 143.248 34.0459C143.134 34.0368 143.02 34.0322 142.906 34.0322C142.624 34.0322 142.375 34.0732 142.161 34.1553C141.947 34.2327 141.767 34.3467 141.621 34.4971C141.48 34.6429 141.37 34.8206 141.293 35.0303C141.215 35.2399 141.17 35.4746 141.156 35.7344L140.78 35.7617C140.78 35.2969 140.826 34.8662 140.917 34.4697C141.008 34.0732 141.145 33.7246 141.327 33.4238C141.514 33.123 141.746 32.8883 142.024 32.7197C142.307 32.5511 142.633 32.4668 143.002 32.4668C143.102 32.4668 143.209 32.4759 143.323 32.4941C143.442 32.5124 143.531 32.5329 143.59 32.5557ZM147.846 40.1367C147.299 40.1367 146.805 40.0479 146.363 39.8701C145.925 39.6878 145.551 39.4349 145.242 39.1113C144.936 38.7878 144.702 38.4072 144.537 37.9697C144.373 37.5322 144.291 37.0605 144.291 36.5547V36.2812C144.291 35.7025 144.376 35.1784 144.544 34.709C144.713 34.2396 144.948 33.8385 145.248 33.5059C145.549 33.1686 145.905 32.9111 146.315 32.7334C146.725 32.5557 147.169 32.4668 147.648 32.4668C148.176 32.4668 148.639 32.5557 149.036 32.7334C149.432 32.9111 149.76 33.1618 150.02 33.4854C150.284 33.8044 150.48 34.1849 150.608 34.627C150.74 35.069 150.806 35.5566 150.806 36.0898V36.7939H145.091V35.6113H149.179V35.4814C149.17 35.1852 149.111 34.9072 149.001 34.6475C148.897 34.3877 148.735 34.1781 148.516 34.0186C148.297 33.859 148.006 33.7793 147.641 33.7793C147.368 33.7793 147.124 33.8385 146.91 33.957C146.7 34.071 146.524 34.2373 146.383 34.4561C146.242 34.6748 146.133 34.9391 146.055 35.249C145.982 35.5544 145.946 35.8984 145.946 36.2812V36.5547C145.946 36.8783 145.989 37.179 146.076 37.457C146.167 37.7305 146.299 37.9697 146.472 38.1748C146.645 38.3799 146.855 38.5417 147.101 38.6602C147.347 38.7741 147.627 38.8311 147.942 38.8311C148.338 38.8311 148.691 38.7513 149.001 38.5918C149.311 38.4323 149.58 38.2067 149.808 37.915L150.676 38.7559C150.517 38.9883 150.309 39.2116 150.054 39.4258C149.799 39.6354 149.487 39.8063 149.118 39.9385C148.753 40.0706 148.329 40.1367 147.846 40.1367ZM156.341 37.9971C156.341 37.833 156.3 37.6849 156.218 37.5527C156.136 37.416 155.978 37.293 155.746 37.1836C155.518 37.0742 155.181 36.974 154.734 36.8828C154.342 36.7962 153.982 36.6937 153.654 36.5752C153.331 36.4521 153.053 36.304 152.82 36.1309C152.588 35.9577 152.408 35.7526 152.28 35.5156C152.152 35.2786 152.089 35.0052 152.089 34.6953C152.089 34.3945 152.155 34.1097 152.287 33.8408C152.419 33.5719 152.608 33.335 152.854 33.1299C153.1 32.9248 153.399 32.763 153.75 32.6445C154.105 32.526 154.502 32.4668 154.939 32.4668C155.559 32.4668 156.09 32.5716 156.532 32.7812C156.979 32.9863 157.32 33.2666 157.557 33.6221C157.794 33.973 157.913 34.3695 157.913 34.8115H156.265C156.265 34.6156 156.215 34.4333 156.115 34.2646C156.019 34.0915 155.873 33.9525 155.678 33.8477C155.482 33.7383 155.235 33.6836 154.939 33.6836C154.657 33.6836 154.422 33.7292 154.235 33.8203C154.053 33.9069 153.916 34.0208 153.825 34.1621C153.738 34.3034 153.695 34.4583 153.695 34.627C153.695 34.75 153.718 34.8617 153.763 34.9619C153.814 35.0576 153.896 35.1465 154.01 35.2285C154.123 35.306 154.278 35.3789 154.474 35.4473C154.675 35.5156 154.926 35.5817 155.226 35.6455C155.791 35.764 156.277 35.9167 156.682 36.1035C157.093 36.2858 157.407 36.5228 157.626 36.8145C157.845 37.1016 157.954 37.4661 157.954 37.9082C157.954 38.2363 157.883 38.5371 157.742 38.8105C157.605 39.0794 157.405 39.3141 157.14 39.5146C156.876 39.7106 156.559 39.8633 156.19 39.9727C155.826 40.082 155.415 40.1367 154.96 40.1367C154.29 40.1367 153.722 40.0182 153.258 39.7812C152.793 39.5397 152.44 39.2321 152.198 38.8584C151.961 38.4801 151.843 38.0882 151.843 37.6826H153.435C153.454 37.988 153.538 38.2318 153.688 38.4141C153.843 38.5918 154.035 38.7217 154.262 38.8037C154.495 38.8812 154.734 38.9199 154.98 38.9199C155.276 38.9199 155.525 38.8812 155.725 38.8037C155.926 38.7217 156.079 38.6123 156.183 38.4756C156.288 38.3343 156.341 38.1748 156.341 37.9971ZM162.757 40.1367C162.21 40.1367 161.716 40.0479 161.274 39.8701C160.836 39.6878 160.462 39.4349 160.153 39.1113C159.847 38.7878 159.613 38.4072 159.448 37.9697C159.284 37.5322 159.202 37.0605 159.202 36.5547V36.2812C159.202 35.7025 159.287 35.1784 159.455 34.709C159.624 34.2396 159.859 33.8385 160.159 33.5059C160.46 33.1686 160.816 32.9111 161.226 32.7334C161.636 32.5557 162.08 32.4668 162.559 32.4668C163.087 32.4668 163.55 32.5557 163.946 32.7334C164.343 32.9111 164.671 33.1618 164.931 33.4854C165.195 33.8044 165.391 34.1849 165.519 34.627C165.651 35.069 165.717 35.5566 165.717 36.0898V36.7939H160.002V35.6113H164.09V35.4814C164.081 35.1852 164.022 34.9072 163.912 34.6475C163.807 34.3877 163.646 34.1781 163.427 34.0186C163.208 33.859 162.917 33.7793 162.552 33.7793C162.279 33.7793 162.035 33.8385 161.821 33.957C161.611 34.071 161.435 34.2373 161.294 34.4561C161.153 34.6748 161.043 34.9391 160.966 35.249C160.893 35.5544 160.857 35.8984 160.857 36.2812V36.5547C160.857 36.8783 160.9 37.179 160.987 37.457C161.078 37.7305 161.21 37.9697 161.383 38.1748C161.556 38.3799 161.766 38.5417 162.012 38.6602C162.258 38.7741 162.538 38.8311 162.853 38.8311C163.249 38.8311 163.602 38.7513 163.912 38.5918C164.222 38.4323 164.491 38.2067 164.719 37.915L165.587 38.7559C165.428 38.9883 165.22 39.2116 164.965 39.4258C164.71 39.6354 164.398 39.8063 164.029 39.9385C163.664 40.0706 163.24 40.1367 162.757 40.1367ZM168.736 34.1826V40H167.088V32.6035H168.64L168.736 34.1826ZM168.442 36.0283L167.909 36.0215C167.913 35.4974 167.986 35.0166 168.128 34.5791C168.273 34.1416 168.474 33.7656 168.729 33.4512C168.989 33.1367 169.299 32.8952 169.659 32.7266C170.019 32.5534 170.42 32.4668 170.862 32.4668C171.217 32.4668 171.539 32.5169 171.826 32.6172C172.117 32.7129 172.366 32.8701 172.571 33.0889C172.781 33.3076 172.94 33.5924 173.049 33.9434C173.159 34.2897 173.213 34.7158 173.213 35.2217V40H171.559V35.2148C171.559 34.8594 171.507 34.5791 171.402 34.374C171.302 34.1644 171.154 34.0163 170.958 33.9297C170.766 33.8385 170.527 33.793 170.24 33.793C169.957 33.793 169.704 33.8522 169.481 33.9707C169.258 34.0892 169.069 34.251 168.914 34.4561C168.763 34.6611 168.647 34.8981 168.565 35.167C168.483 35.4359 168.442 35.723 168.442 36.0283ZM178.386 32.6035V33.8066H174.216V32.6035H178.386ZM175.419 30.792H177.066V37.9561C177.066 38.1839 177.098 38.3594 177.162 38.4824C177.23 38.6009 177.324 38.6807 177.442 38.7217C177.561 38.7627 177.7 38.7832 177.859 38.7832C177.973 38.7832 178.083 38.7764 178.188 38.7627C178.292 38.749 178.377 38.7354 178.44 38.7217L178.447 39.9795C178.311 40.0205 178.151 40.057 177.969 40.0889C177.791 40.1208 177.586 40.1367 177.354 40.1367C176.975 40.1367 176.64 40.0706 176.349 39.9385C176.057 39.8018 175.829 39.5807 175.665 39.2754C175.501 38.9701 175.419 38.5645 175.419 38.0586V30.792ZM183.927 38.5166V34.9893C183.927 34.7249 183.879 34.4971 183.784 34.3057C183.688 34.1143 183.542 33.9661 183.346 33.8613C183.155 33.7565 182.913 33.7041 182.621 33.7041C182.353 33.7041 182.12 33.7497 181.924 33.8408C181.728 33.932 181.576 34.055 181.466 34.21C181.357 34.3649 181.302 34.5404 181.302 34.7363H179.662C179.662 34.4447 179.732 34.1621 179.873 33.8887C180.015 33.6152 180.22 33.3714 180.489 33.1572C180.758 32.943 181.079 32.7744 181.453 32.6514C181.826 32.5283 182.246 32.4668 182.71 32.4668C183.266 32.4668 183.759 32.5602 184.187 32.7471C184.62 32.9339 184.959 33.2165 185.205 33.5947C185.456 33.9684 185.581 34.4378 185.581 35.0029V38.291C185.581 38.6283 185.604 38.9313 185.65 39.2002C185.7 39.4645 185.771 39.6947 185.862 39.8906V40H184.173C184.096 39.8223 184.034 39.5967 183.989 39.3232C183.948 39.0452 183.927 38.7764 183.927 38.5166ZM184.166 35.502L184.18 36.5205H182.997C182.692 36.5205 182.423 36.5501 182.191 36.6094C181.958 36.6641 181.765 36.7461 181.61 36.8555C181.455 36.9648 181.339 37.097 181.261 37.252C181.184 37.4069 181.145 37.5824 181.145 37.7783C181.145 37.9743 181.19 38.1543 181.282 38.3184C181.373 38.4779 181.505 38.6032 181.678 38.6943C181.856 38.7855 182.07 38.8311 182.321 38.8311C182.658 38.8311 182.952 38.7627 183.203 38.626C183.458 38.4847 183.658 38.3138 183.804 38.1133C183.95 37.9082 184.027 37.7145 184.037 37.5322L184.57 38.2637C184.515 38.4505 184.422 38.651 184.289 38.8652C184.157 39.0794 183.984 39.2845 183.77 39.4805C183.56 39.6719 183.307 39.8291 183.011 39.9521C182.719 40.0752 182.382 40.1367 181.999 40.1367C181.516 40.1367 181.086 40.041 180.707 39.8496C180.329 39.6536 180.033 39.3916 179.819 39.0635C179.605 38.7308 179.497 38.3548 179.497 37.9355C179.497 37.5436 179.57 37.1973 179.716 36.8965C179.867 36.5911 180.085 36.3359 180.372 36.1309C180.664 35.9258 181.02 35.7708 181.439 35.666C181.858 35.5566 182.337 35.502 182.874 35.502H184.166ZM190.795 32.6035V33.8066H186.625V32.6035H190.795ZM187.828 30.792H189.475V37.9561C189.475 38.1839 189.507 38.3594 189.571 38.4824C189.639 38.6009 189.733 38.6807 189.851 38.7217C189.97 38.7627 190.109 38.7832 190.268 38.7832C190.382 38.7832 190.492 38.7764 190.596 38.7627C190.701 38.749 190.786 38.7354 190.849 38.7217L190.856 39.9795C190.72 40.0205 190.56 40.057 190.378 40.0889C190.2 40.1208 189.995 40.1367 189.762 40.1367C189.384 40.1367 189.049 40.0706 188.758 39.9385C188.466 39.8018 188.238 39.5807 188.074 39.2754C187.91 38.9701 187.828 38.5645 187.828 38.0586V30.792ZM193.93 32.6035V40H192.276V32.6035H193.93ZM192.166 30.6621C192.166 30.4115 192.248 30.2041 192.412 30.04C192.581 29.8714 192.813 29.7871 193.11 29.7871C193.401 29.7871 193.631 29.8714 193.8 30.04C193.969 30.2041 194.053 30.4115 194.053 30.6621C194.053 30.9082 193.969 31.1133 193.8 31.2773C193.631 31.4414 193.401 31.5234 193.11 31.5234C192.813 31.5234 192.581 31.4414 192.412 31.2773C192.248 31.1133 192.166 30.9082 192.166 30.6621ZM195.52 36.3838V36.2266C195.52 35.6934 195.598 35.1989 195.753 34.7432C195.907 34.2829 196.131 33.8841 196.422 33.5469C196.719 33.2051 197.079 32.9408 197.503 32.7539C197.931 32.5625 198.414 32.4668 198.952 32.4668C199.494 32.4668 199.977 32.5625 200.401 32.7539C200.829 32.9408 201.192 33.2051 201.488 33.5469C201.784 33.8841 202.01 34.2829 202.165 34.7432C202.32 35.1989 202.397 35.6934 202.397 36.2266V36.3838C202.397 36.917 202.32 37.4115 202.165 37.8672C202.01 38.3229 201.784 38.7217 201.488 39.0635C201.192 39.4007 200.832 39.665 200.408 39.8564C199.984 40.0433 199.503 40.1367 198.965 40.1367C198.423 40.1367 197.938 40.0433 197.509 39.8564C197.086 39.665 196.726 39.4007 196.429 39.0635C196.133 38.7217 195.907 38.3229 195.753 37.8672C195.598 37.4115 195.52 36.917 195.52 36.3838ZM197.168 36.2266V36.3838C197.168 36.7165 197.202 37.0309 197.27 37.3271C197.338 37.6234 197.446 37.8831 197.591 38.1064C197.737 38.3298 197.924 38.5052 198.152 38.6328C198.38 38.7604 198.651 38.8242 198.965 38.8242C199.271 38.8242 199.535 38.7604 199.758 38.6328C199.986 38.5052 200.173 38.3298 200.319 38.1064C200.465 37.8831 200.572 37.6234 200.64 37.3271C200.713 37.0309 200.75 36.7165 200.75 36.3838V36.2266C200.75 35.8984 200.713 35.5885 200.64 35.2969C200.572 35.0007 200.462 34.7386 200.312 34.5107C200.166 34.2829 199.979 34.1051 199.752 33.9775C199.528 33.8454 199.262 33.7793 198.952 33.7793C198.642 33.7793 198.373 33.8454 198.145 33.9775C197.922 34.1051 197.737 34.2829 197.591 34.5107C197.446 34.7386 197.338 35.0007 197.27 35.2969C197.202 35.5885 197.168 35.8984 197.168 36.2266ZM205.512 34.1826V40H203.864V32.6035H205.416L205.512 34.1826ZM205.218 36.0283L204.685 36.0215C204.689 35.4974 204.762 35.0166 204.903 34.5791C205.049 34.1416 205.25 33.7656 205.505 33.4512C205.765 33.1367 206.075 32.8952 206.435 32.7266C206.795 32.5534 207.196 32.4668 207.638 32.4668C207.993 32.4668 208.314 32.5169 208.602 32.6172C208.893 32.7129 209.142 32.8701 209.347 33.0889C209.556 33.3076 209.716 33.5924 209.825 33.9434C209.935 34.2897 209.989 34.7158 209.989 35.2217V40H208.335V35.2148C208.335 34.8594 208.283 34.5791 208.178 34.374C208.077 34.1644 207.929 34.0163 207.733 33.9297C207.542 33.8385 207.303 33.793 207.016 33.793C206.733 33.793 206.48 33.8522 206.257 33.9707C206.034 34.0892 205.844 34.251 205.689 34.4561C205.539 34.6611 205.423 34.8981 205.341 35.167C205.259 35.4359 205.218 35.723 205.218 36.0283Z" fill="#E8DEF8"/>
</g>
</g>
<defs>
<filter id="filter0_dd_53097_27354" x="0" y="0" width="242" height="78" filterUnits="userSpaceOnUse" color-interpolation-filters="sRGB">
<feFlood flood-opacity="0" result="BackgroundImageFix"/>
<feColorMatrix in="SourceAlpha" type="matrix" values="0 0 0 0 0 0 0 0 0 0 0 0 0 0 0 0 0 0 127 0" result="hardAlpha"/>
<feOffset dy="1"/>
<feGaussianBlur stdDeviation="1.5"/>
<feColorMatrix type="matrix" values="0 0 0 0 0 0 0 0 0 0 0 0 0 0 0 0 0 0 0.3 0"/>
<feBlend mode="normal" in2="BackgroundImageFix" result="effect1_dropShadow_53097_27354"/>
<feColorMatrix in="SourceAlpha" type="matrix" values="0 0 0 0 0 0 0 0 0 0 0 0 0 0 0 0 0 0 127 0" result="hardAlpha"/>
<feMorphology radius="3" operator="dilate" in="SourceAlpha" result="effect2_dropShadow_53097_27354"/>
<feOffset dy="4"/>
<feGaussianBlur stdDeviation="4"/>
<feColorMatrix type="matrix" values="0 0 0 0 0 0 0 0 0 0 0 0 0 0 0 0 0 0 0.15 0"/>
<feBlend mode="normal" in2="effect1_dropShadow_53097_27354" result="effect2_dropShadow_53097_27354"/>
<feBlend mode="normal" in="SourceGraphic" in2="effect2_dropShadow_53097_27354" result="shape"/>
</filter>
<clipPath id="clip0_53097_27354">
<rect x="11" y="7" width="220" height="56" rx="16" fill="white"/>
</clipPath>
</defs>
</svg>
