<svg width="243" height="78" viewBox="0 0 243 78" fill="none" xmlns="http://www.w3.org/2000/svg">
<g filter="url(#filter0_dd_51655_5115)">
<g clip-path="url(#clip0_51655_5115)">
<rect x="11" y="7" width="221" height="56" rx="16" fill="#1976D2"/>
<path d="M32.5 45C32.1 45 31.75 44.85 31.45 44.55C31.15 44.25 31 43.9 31 43.5V26.5C31 26.1 31.15 25.75 31.45 25.45C31.75 25.15 32.1 25 32.5 25H45.5C45.9 25 46.25 25.15 46.55 25.45C46.85 25.75 47 26.1 47 26.5V43.5C47 43.9 46.85 44.25 46.55 44.55C46.25 44.85 45.9 45 45.5 45H32.5ZM32.5 43.5H45.5V26.5H44V33.15L41.575 31.75L39.15 33.15V26.5H32.5V43.5ZM32.5 43.5V26.5V43.5ZM39.15 33.15L41.575 31.75L44 33.15L41.575 31.75L39.15 33.15Z" fill="#E8DEF8"/>
<path d="M66.9854 40H64.8594L64.873 38.6396H66.9854C67.6006 38.6396 68.1156 38.5052 68.5303 38.2363C68.9495 37.9674 69.264 37.5824 69.4736 37.0811C69.6878 36.5798 69.7949 35.9827 69.7949 35.29V34.75C69.7949 34.2122 69.7334 33.736 69.6104 33.3213C69.4919 32.9066 69.3141 32.5579 69.0771 32.2754C68.8447 31.9928 68.5576 31.7786 68.2158 31.6328C67.8786 31.487 67.4889 31.4141 67.0469 31.4141H64.8184V30.0469H67.0469C67.7077 30.0469 68.3115 30.1585 68.8584 30.3818C69.4053 30.6006 69.877 30.9173 70.2734 31.332C70.6745 31.7467 70.9821 32.2435 71.1963 32.8223C71.4105 33.401 71.5176 34.0482 71.5176 34.7637V35.29C71.5176 36.0055 71.4105 36.6527 71.1963 37.2314C70.9821 37.8102 70.6745 38.307 70.2734 38.7217C69.8724 39.1318 69.3939 39.4486 68.8379 39.6719C68.2865 39.8906 67.6689 40 66.9854 40ZM65.8096 30.0469V40H64.0938V30.0469H65.8096ZM72.8617 36.3838V36.2266C72.8617 35.6934 72.9392 35.1989 73.0941 34.7432C73.2491 34.2829 73.4724 33.8841 73.7641 33.5469C74.0603 33.2051 74.4203 32.9408 74.8441 32.7539C75.2725 32.5625 75.7556 32.4668 76.2934 32.4668C76.8357 32.4668 77.3188 32.5625 77.7426 32.7539C78.171 32.9408 78.5333 33.2051 78.8295 33.5469C79.1257 33.8841 79.3513 34.2829 79.5063 34.7432C79.6612 35.1989 79.7387 35.6934 79.7387 36.2266V36.3838C79.7387 36.917 79.6612 37.4115 79.5063 37.8672C79.3513 38.3229 79.1257 38.7217 78.8295 39.0635C78.5333 39.4007 78.1732 39.665 77.7494 39.8564C77.3256 40.0433 76.8448 40.1367 76.307 40.1367C75.7647 40.1367 75.2794 40.0433 74.851 39.8564C74.4271 39.665 74.0671 39.4007 73.7709 39.0635C73.4747 38.7217 73.2491 38.3229 73.0941 37.8672C72.9392 37.4115 72.8617 36.917 72.8617 36.3838ZM74.5092 36.2266V36.3838C74.5092 36.7165 74.5434 37.0309 74.6117 37.3271C74.6801 37.6234 74.7872 37.8831 74.933 38.1064C75.0788 38.3298 75.2657 38.5052 75.4936 38.6328C75.7214 38.7604 75.9926 38.8242 76.307 38.8242C76.6124 38.8242 76.8767 38.7604 77.1 38.6328C77.3279 38.5052 77.5147 38.3298 77.6605 38.1064C77.8064 37.8831 77.9135 37.6234 77.9818 37.3271C78.0548 37.0309 78.0912 36.7165 78.0912 36.3838V36.2266C78.0912 35.8984 78.0548 35.5885 77.9818 35.2969C77.9135 35.0007 77.8041 34.7386 77.6537 34.5107C77.5079 34.2829 77.321 34.1051 77.0932 33.9775C76.8699 33.8454 76.6033 33.7793 76.2934 33.7793C75.9835 33.7793 75.7146 33.8454 75.4867 33.9775C75.2634 34.1051 75.0788 34.2829 74.933 34.5107C74.7872 34.7386 74.6801 35.0007 74.6117 35.2969C74.5434 35.5885 74.5092 35.8984 74.5092 36.2266ZM83.2293 38.3594L84.9383 32.6035H85.991L85.7039 34.3262L83.9813 40H83.0379L83.2293 38.3594ZM82.2244 32.6035L83.5574 38.3867L83.6668 40H82.6141L80.6111 32.6035H82.2244ZM87.5906 38.3184L88.8826 32.6035H90.4891L88.493 40H87.4402L87.5906 38.3184ZM86.1688 32.6035L87.8572 38.291L88.0691 40H87.1258L85.3826 34.3193L85.0955 32.6035H86.1688ZM93.3439 34.1826V40H91.6965V32.6035H93.2482L93.3439 34.1826ZM93.05 36.0283L92.5168 36.0215C92.5214 35.4974 92.5943 35.0166 92.7355 34.5791C92.8814 34.1416 93.0819 33.7656 93.3371 33.4512C93.5969 33.1367 93.9068 32.8952 94.2668 32.7266C94.6268 32.5534 95.0279 32.4668 95.4699 32.4668C95.8254 32.4668 96.1467 32.5169 96.4338 32.6172C96.7255 32.7129 96.9738 32.8701 97.1789 33.0889C97.3885 33.3076 97.548 33.5924 97.6574 33.9434C97.7668 34.2897 97.8215 34.7158 97.8215 35.2217V40H96.1672V35.2148C96.1672 34.8594 96.1148 34.5791 96.01 34.374C95.9097 34.1644 95.7616 34.0163 95.5656 33.9297C95.3742 33.8385 95.135 33.793 94.8479 33.793C94.5653 33.793 94.3124 33.8522 94.0891 33.9707C93.8658 34.0892 93.6766 34.251 93.5217 34.4561C93.3713 34.6611 93.2551 34.8981 93.173 35.167C93.091 35.4359 93.05 35.723 93.05 36.0283ZM101.367 29.5V40H99.7125V29.5H101.367ZM102.957 36.3838V36.2266C102.957 35.6934 103.035 35.1989 103.189 34.7432C103.344 34.2829 103.568 33.8841 103.859 33.5469C104.156 33.2051 104.516 32.9408 104.939 32.7539C105.368 32.5625 105.851 32.4668 106.389 32.4668C106.931 32.4668 107.414 32.5625 107.838 32.7539C108.266 32.9408 108.629 33.2051 108.925 33.5469C109.221 33.8841 109.447 34.2829 109.602 34.7432C109.757 35.1989 109.834 35.6934 109.834 36.2266V36.3838C109.834 36.917 109.757 37.4115 109.602 37.8672C109.447 38.3229 109.221 38.7217 108.925 39.0635C108.629 39.4007 108.269 39.665 107.845 39.8564C107.421 40.0433 106.94 40.1367 106.402 40.1367C105.86 40.1367 105.375 40.0433 104.946 39.8564C104.522 39.665 104.162 39.4007 103.866 39.0635C103.57 38.7217 103.344 38.3229 103.189 37.8672C103.035 37.4115 102.957 36.917 102.957 36.3838ZM104.604 36.2266V36.3838C104.604 36.7165 104.639 37.0309 104.707 37.3271C104.775 37.6234 104.882 37.8831 105.028 38.1064C105.174 38.3298 105.361 38.5052 105.589 38.6328C105.817 38.7604 106.088 38.8242 106.402 38.8242C106.708 38.8242 106.972 38.7604 107.195 38.6328C107.423 38.5052 107.61 38.3298 107.756 38.1064C107.902 37.8831 108.009 37.6234 108.077 37.3271C108.15 37.0309 108.187 36.7165 108.187 36.3838V36.2266C108.187 35.8984 108.15 35.5885 108.077 35.2969C108.009 35.0007 107.899 34.7386 107.749 34.5107C107.603 34.2829 107.416 34.1051 107.188 33.9775C106.965 33.8454 106.699 33.7793 106.389 33.7793C106.079 33.7793 105.81 33.8454 105.582 33.9775C105.359 34.1051 105.174 34.2829 105.028 34.5107C104.882 34.7386 104.775 35.0007 104.707 35.2969C104.639 35.5885 104.604 35.8984 104.604 36.2266ZM115.485 38.5166V34.9893C115.485 34.7249 115.437 34.4971 115.341 34.3057C115.246 34.1143 115.1 33.9661 114.904 33.8613C114.712 33.7565 114.471 33.7041 114.179 33.7041C113.91 33.7041 113.678 33.7497 113.482 33.8408C113.286 33.932 113.133 34.055 113.024 34.21C112.914 34.3649 112.86 34.5404 112.86 34.7363H111.219C111.219 34.4447 111.29 34.1621 111.431 33.8887C111.572 33.6152 111.777 33.3714 112.046 33.1572C112.315 32.943 112.636 32.7744 113.01 32.6514C113.384 32.5283 113.803 32.4668 114.268 32.4668C114.824 32.4668 115.316 32.5602 115.745 32.7471C116.177 32.9339 116.517 33.2165 116.763 33.5947C117.014 33.9684 117.139 34.4378 117.139 35.0029V38.291C117.139 38.6283 117.162 38.9313 117.207 39.2002C117.258 39.4645 117.328 39.6947 117.419 39.8906V40H115.731C115.653 39.8223 115.592 39.5967 115.546 39.3232C115.505 39.0452 115.485 38.7764 115.485 38.5166ZM115.724 35.502L115.738 36.5205H114.555C114.25 36.5205 113.981 36.5501 113.748 36.6094C113.516 36.6641 113.322 36.7461 113.167 36.8555C113.012 36.9648 112.896 37.097 112.819 37.252C112.741 37.4069 112.703 37.5824 112.703 37.7783C112.703 37.9743 112.748 38.1543 112.839 38.3184C112.93 38.4779 113.063 38.6032 113.236 38.6943C113.413 38.7855 113.628 38.8311 113.878 38.8311C114.216 38.8311 114.51 38.7627 114.76 38.626C115.015 38.4847 115.216 38.3138 115.362 38.1133C115.508 37.9082 115.585 37.7145 115.594 37.5322L116.127 38.2637C116.073 38.4505 115.979 38.651 115.847 38.8652C115.715 39.0794 115.542 39.2845 115.328 39.4805C115.118 39.6719 114.865 39.8291 114.569 39.9521C114.277 40.0752 113.94 40.1367 113.557 40.1367C113.074 40.1367 112.643 40.041 112.265 39.8496C111.887 39.6536 111.591 39.3916 111.376 39.0635C111.162 38.7308 111.055 38.3548 111.055 37.9355C111.055 37.5436 111.128 37.1973 111.274 36.8965C111.424 36.5911 111.643 36.3359 111.93 36.1309C112.222 35.9258 112.577 35.7708 112.996 35.666C113.416 35.5566 113.894 35.502 114.432 35.502H115.724ZM123.473 38.4688V29.5H125.128V40H123.631L123.473 38.4688ZM118.661 36.3838V36.2402C118.661 35.6797 118.727 35.1693 118.859 34.709C118.991 34.2441 119.183 33.8454 119.433 33.5127C119.684 33.1755 119.989 32.918 120.349 32.7402C120.709 32.5579 121.115 32.4668 121.566 32.4668C122.013 32.4668 122.405 32.5534 122.742 32.7266C123.079 32.8997 123.366 33.1481 123.603 33.4717C123.84 33.7907 124.029 34.1735 124.171 34.6201C124.312 35.0622 124.412 35.5544 124.471 36.0967V36.5547C124.412 37.0833 124.312 37.5664 124.171 38.0039C124.029 38.4414 123.84 38.8197 123.603 39.1387C123.366 39.4577 123.077 39.7038 122.735 39.877C122.398 40.0501 122.004 40.1367 121.553 40.1367C121.106 40.1367 120.703 40.0433 120.343 39.8564C119.987 39.6696 119.684 39.4076 119.433 39.0703C119.183 38.7331 118.991 38.3366 118.859 37.8809C118.727 37.4206 118.661 36.9215 118.661 36.3838ZM120.308 36.2402V36.3838C120.308 36.721 120.338 37.0355 120.397 37.3271C120.461 37.6188 120.559 37.8763 120.691 38.0996C120.823 38.3184 120.994 38.4915 121.204 38.6191C121.418 38.7422 121.673 38.8037 121.97 38.8037C122.343 38.8037 122.651 38.7217 122.892 38.5576C123.134 38.3936 123.323 38.1725 123.46 37.8945C123.601 37.612 123.697 37.2975 123.747 36.9512V35.7139C123.72 35.445 123.663 35.1943 123.576 34.9619C123.494 34.7295 123.382 34.5267 123.241 34.3535C123.1 34.1758 122.924 34.0391 122.715 33.9434C122.51 33.8431 122.266 33.793 121.983 33.793C121.682 33.793 121.427 33.8568 121.218 33.9844C121.008 34.112 120.835 34.2874 120.698 34.5107C120.566 34.734 120.468 34.9938 120.404 35.29C120.34 35.5863 120.308 35.903 120.308 36.2402ZM130.701 30.0469H134.221C134.978 30.0469 135.623 30.1608 136.156 30.3887C136.689 30.6165 137.097 30.9538 137.379 31.4004C137.667 31.8424 137.81 32.3893 137.81 33.041C137.81 33.5378 137.719 33.9753 137.537 34.3535C137.354 34.7318 137.097 35.0508 136.764 35.3105C136.432 35.5658 136.035 35.764 135.575 35.9053L135.055 36.1582H131.89L131.877 34.7979H134.249C134.659 34.7979 135.001 34.7249 135.274 34.5791C135.547 34.4333 135.753 34.235 135.889 33.9844C136.031 33.7292 136.101 33.4421 136.101 33.123C136.101 32.7767 136.033 32.4759 135.896 32.2207C135.764 31.9609 135.559 31.7627 135.281 31.626C135.003 31.4847 134.65 31.4141 134.221 31.4141H132.417V40H130.701V30.0469ZM136.381 40L134.044 35.5293L135.841 35.5225L138.213 39.9111V40H136.381ZM142.716 40.1367C142.169 40.1367 141.674 40.0479 141.232 39.8701C140.795 39.6878 140.421 39.4349 140.111 39.1113C139.806 38.7878 139.571 38.4072 139.407 37.9697C139.243 37.5322 139.161 37.0605 139.161 36.5547V36.2812C139.161 35.7025 139.245 35.1784 139.414 34.709C139.583 34.2396 139.817 33.8385 140.118 33.5059C140.419 33.1686 140.774 32.9111 141.185 32.7334C141.595 32.5557 142.039 32.4668 142.518 32.4668C143.046 32.4668 143.509 32.5557 143.905 32.7334C144.302 32.9111 144.63 33.1618 144.89 33.4854C145.154 33.8044 145.35 34.1849 145.478 34.627C145.61 35.069 145.676 35.5566 145.676 36.0898V36.7939H139.961V35.6113H144.049V35.4814C144.04 35.1852 143.98 34.9072 143.871 34.6475C143.766 34.3877 143.604 34.1781 143.386 34.0186C143.167 33.859 142.875 33.7793 142.511 33.7793C142.237 33.7793 141.993 33.8385 141.779 33.957C141.57 34.071 141.394 34.2373 141.253 34.4561C141.112 34.6748 141.002 34.9391 140.925 35.249C140.852 35.5544 140.815 35.8984 140.815 36.2812V36.5547C140.815 36.8783 140.859 37.179 140.945 37.457C141.036 37.7305 141.169 37.9697 141.342 38.1748C141.515 38.3799 141.725 38.5417 141.971 38.6602C142.217 38.7741 142.497 38.8311 142.812 38.8311C143.208 38.8311 143.561 38.7513 143.871 38.5918C144.181 38.4323 144.45 38.2067 144.678 37.915L145.546 38.7559C145.386 38.9883 145.179 39.2116 144.924 39.4258C144.669 39.6354 144.356 39.8063 143.987 39.9385C143.623 40.0706 143.199 40.1367 142.716 40.1367ZM148.715 34.0254V42.8438H147.068V32.6035H148.585L148.715 34.0254ZM153.535 36.2334V36.377C153.535 36.9147 153.471 37.4137 153.343 37.874C153.22 38.3298 153.036 38.7285 152.789 39.0703C152.548 39.4076 152.249 39.6696 151.894 39.8564C151.538 40.0433 151.128 40.1367 150.663 40.1367C150.203 40.1367 149.8 40.0524 149.454 39.8838C149.112 39.7106 148.822 39.4668 148.585 39.1523C148.348 38.8379 148.157 38.4688 148.011 38.0449C147.87 37.6165 147.77 37.1471 147.71 36.6367V36.083C147.77 35.5407 147.87 35.0485 148.011 34.6064C148.157 34.1644 148.348 33.7839 148.585 33.4648C148.822 33.1458 149.112 32.8997 149.454 32.7266C149.795 32.5534 150.194 32.4668 150.65 32.4668C151.115 32.4668 151.527 32.5579 151.887 32.7402C152.247 32.918 152.55 33.1732 152.796 33.5059C153.042 33.834 153.227 34.2305 153.35 34.6953C153.473 35.1556 153.535 35.6683 153.535 36.2334ZM151.887 36.377V36.2334C151.887 35.8916 151.855 35.5749 151.791 35.2832C151.728 34.987 151.627 34.7272 151.491 34.5039C151.354 34.2806 151.178 34.1074 150.964 33.9844C150.755 33.8568 150.502 33.793 150.205 33.793C149.914 33.793 149.663 33.8431 149.454 33.9434C149.244 34.0391 149.068 34.1735 148.927 34.3467C148.786 34.5199 148.676 34.7227 148.599 34.9551C148.522 35.1829 148.467 35.4313 148.435 35.7002V37.0264C148.49 37.3545 148.583 37.6553 148.715 37.9287C148.847 38.2021 149.034 38.4209 149.276 38.585C149.522 38.7445 149.836 38.8242 150.219 38.8242C150.515 38.8242 150.768 38.7604 150.978 38.6328C151.188 38.5052 151.358 38.3298 151.491 38.1064C151.627 37.8786 151.728 37.6165 151.791 37.3203C151.855 37.0241 151.887 36.7096 151.887 36.377ZM154.721 36.3838V36.2266C154.721 35.6934 154.799 35.1989 154.954 34.7432C155.109 34.2829 155.332 33.8841 155.624 33.5469C155.92 33.2051 156.28 32.9408 156.704 32.7539C157.132 32.5625 157.615 32.4668 158.153 32.4668C158.695 32.4668 159.179 32.5625 159.602 32.7539C160.031 32.9408 160.393 33.2051 160.689 33.5469C160.985 33.8841 161.211 34.2829 161.366 34.7432C161.521 35.1989 161.598 35.6934 161.598 36.2266V36.3838C161.598 36.917 161.521 37.4115 161.366 37.8672C161.211 38.3229 160.985 38.7217 160.689 39.0635C160.393 39.4007 160.033 39.665 159.609 39.8564C159.185 40.0433 158.705 40.1367 158.167 40.1367C157.624 40.1367 157.139 40.0433 156.711 39.8564C156.287 39.665 155.927 39.4007 155.631 39.0635C155.334 38.7217 155.109 38.3229 154.954 37.8672C154.799 37.4115 154.721 36.917 154.721 36.3838ZM156.369 36.2266V36.3838C156.369 36.7165 156.403 37.0309 156.471 37.3271C156.54 37.6234 156.647 37.8831 156.793 38.1064C156.939 38.3298 157.125 38.5052 157.353 38.6328C157.581 38.7604 157.852 38.8242 158.167 38.8242C158.472 38.8242 158.736 38.7604 158.96 38.6328C159.188 38.5052 159.374 38.3298 159.52 38.1064C159.666 37.8831 159.773 37.6234 159.842 37.3271C159.915 37.0309 159.951 36.7165 159.951 36.3838V36.2266C159.951 35.8984 159.915 35.5885 159.842 35.2969C159.773 35.0007 159.664 34.7386 159.513 34.5107C159.368 34.2829 159.181 34.1051 158.953 33.9775C158.73 33.8454 158.463 33.7793 158.153 33.7793C157.843 33.7793 157.574 33.8454 157.346 33.9775C157.123 34.1051 156.939 34.2829 156.793 34.5107C156.647 34.7386 156.54 35.0007 156.471 35.2969C156.403 35.5885 156.369 35.8984 156.369 36.2266ZM164.734 34.0117V40H163.086V32.6035H164.658L164.734 34.0117ZM166.996 32.5557L166.983 34.0869C166.882 34.0687 166.773 34.055 166.654 34.0459C166.541 34.0368 166.427 34.0322 166.313 34.0322C166.03 34.0322 165.782 34.0732 165.568 34.1553C165.353 34.2327 165.173 34.3467 165.028 34.4971C164.886 34.6429 164.777 34.8206 164.699 35.0303C164.622 35.2399 164.576 35.4746 164.563 35.7344L164.187 35.7617C164.187 35.2969 164.232 34.8662 164.323 34.4697C164.415 34.0732 164.551 33.7246 164.734 33.4238C164.92 33.123 165.153 32.8883 165.431 32.7197C165.713 32.5511 166.039 32.4668 166.408 32.4668C166.509 32.4668 166.616 32.4759 166.73 32.4941C166.848 32.5124 166.937 32.5329 166.996 32.5557ZM171.861 32.6035V33.8066H167.691V32.6035H171.861ZM168.894 30.792H170.542V37.9561C170.542 38.1839 170.574 38.3594 170.637 38.4824C170.706 38.6009 170.799 38.6807 170.918 38.7217C171.036 38.7627 171.175 38.7832 171.335 38.7832C171.449 38.7832 171.558 38.7764 171.663 38.7627C171.768 38.749 171.852 38.7354 171.916 38.7217L171.922 39.9795C171.786 40.0205 171.626 40.057 171.444 40.0889C171.266 40.1208 171.061 40.1367 170.829 40.1367C170.45 40.1367 170.115 40.0706 169.824 39.9385C169.532 39.8018 169.304 39.5807 169.14 39.2754C168.976 38.9701 168.894 38.5645 168.894 38.0586V30.792ZM176.853 36.0693V35.9531C176.853 34.9779 176.958 34.0938 177.167 33.3008C177.382 32.5033 177.66 31.806 178.001 31.209C178.343 30.6074 178.708 30.1107 179.095 29.7188C179.487 29.3223 179.863 29.0374 180.223 28.8643L180.551 29.8076C180.287 30.0036 180.023 30.2747 179.758 30.6211C179.498 30.9674 179.259 31.3936 179.04 31.8994C178.826 32.4007 178.653 32.9886 178.521 33.6631C178.393 34.333 178.329 35.0918 178.329 35.9395V36.083C178.329 36.9307 178.393 37.6917 178.521 38.3662C178.653 39.0361 178.826 39.624 179.04 40.1299C179.259 40.6357 179.498 41.0641 179.758 41.415C180.023 41.7705 180.287 42.0531 180.551 42.2627L180.223 43.165C179.863 42.9873 179.487 42.7002 179.095 42.3037C178.708 41.9118 178.343 41.415 178.001 40.8135C177.66 40.2165 177.382 39.5215 177.167 38.7285C176.958 37.931 176.853 37.0446 176.853 36.0693ZM185.717 36.2881H183.126V34.9277H185.717C186.168 34.9277 186.532 34.8548 186.81 34.709C187.088 34.5632 187.291 34.3626 187.419 34.1074C187.551 33.8477 187.617 33.5514 187.617 33.2188C187.617 32.9043 187.551 32.6104 187.419 32.3369C187.291 32.0589 187.088 31.8356 186.81 31.667C186.532 31.4984 186.168 31.4141 185.717 31.4141H183.652V40H181.936V30.0469H185.717C186.487 30.0469 187.141 30.1836 187.679 30.457C188.221 30.7259 188.633 31.0996 188.916 31.5781C189.198 32.0521 189.34 32.5944 189.34 33.2051C189.34 33.8477 189.198 34.3991 188.916 34.8594C188.633 35.3197 188.221 35.6729 187.679 35.9189C187.141 36.165 186.487 36.2881 185.717 36.2881ZM193.869 40H191.743L191.757 38.6396H193.869C194.485 38.6396 195 38.5052 195.414 38.2363C195.834 37.9674 196.148 37.5824 196.358 37.0811C196.572 36.5798 196.679 35.9827 196.679 35.29V34.75C196.679 34.2122 196.617 33.736 196.494 33.3213C196.376 32.9066 196.198 32.5579 195.961 32.2754C195.729 31.9928 195.442 31.7786 195.1 31.6328C194.763 31.487 194.373 31.4141 193.931 31.4141H191.702V30.0469H193.931C194.592 30.0469 195.196 30.1585 195.742 30.3818C196.289 30.6006 196.761 30.9173 197.157 31.332C197.558 31.7467 197.866 32.2435 198.08 32.8223C198.294 33.401 198.402 34.0482 198.402 34.7637V35.29C198.402 36.0055 198.294 36.6527 198.08 37.2314C197.866 37.8102 197.558 38.307 197.157 38.7217C196.756 39.1318 196.278 39.4486 195.722 39.6719C195.17 39.8906 194.553 40 193.869 40ZM192.694 30.0469V40H190.978V30.0469H192.694ZM201.94 30.0469V40H200.224V30.0469H201.94ZM206.001 34.4014V35.7617H201.503V34.4014H206.001ZM206.568 30.0469V31.4141H201.503V30.0469H206.568ZM211.05 35.9531V36.0693C211.05 37.0309 210.94 37.9082 210.722 38.7012C210.507 39.4941 210.227 40.1914 209.881 40.793C209.539 41.3945 209.168 41.8958 208.767 42.2969C208.37 42.6979 207.99 42.9873 207.625 43.165L207.29 42.2627C207.554 42.0622 207.816 41.7865 208.076 41.4355C208.34 41.0892 208.58 40.6585 208.794 40.1436C209.013 39.6331 209.186 39.0407 209.313 38.3662C209.446 37.6917 209.512 36.9307 209.512 36.083V35.9395C209.512 35.0918 209.443 34.3307 209.307 33.6562C209.174 32.9772 208.997 32.3848 208.773 31.8789C208.55 31.3685 208.309 30.9378 208.049 30.5869C207.789 30.236 207.536 29.9626 207.29 29.7666L207.625 28.8643C207.99 29.0374 208.37 29.3245 208.767 29.7256C209.168 30.1266 209.539 30.6302 209.881 31.2363C210.227 31.8379 210.507 32.5352 210.722 33.3281C210.94 34.1211 211.05 34.9961 211.05 35.9531Z" fill="#E8DEF8"/>
</g>
</g>
<defs>
<filter id="filter0_dd_51655_5115" x="0" y="0" width="243" height="78" filterUnits="userSpaceOnUse" color-interpolation-filters="sRGB">
<feFlood flood-opacity="0" result="BackgroundImageFix"/>
<feColorMatrix in="SourceAlpha" type="matrix" values="0 0 0 0 0 0 0 0 0 0 0 0 0 0 0 0 0 0 127 0" result="hardAlpha"/>
<feOffset dy="1"/>
<feGaussianBlur stdDeviation="1.5"/>
<feColorMatrix type="matrix" values="0 0 0 0 0 0 0 0 0 0 0 0 0 0 0 0 0 0 0.3 0"/>
<feBlend mode="normal" in2="BackgroundImageFix" result="effect1_dropShadow_51655_5115"/>
<feColorMatrix in="SourceAlpha" type="matrix" values="0 0 0 0 0 0 0 0 0 0 0 0 0 0 0 0 0 0 127 0" result="hardAlpha"/>
<feMorphology radius="3" operator="dilate" in="SourceAlpha" result="effect2_dropShadow_51655_5115"/>
<feOffset dy="4"/>
<feGaussianBlur stdDeviation="4"/>
<feColorMatrix type="matrix" values="0 0 0 0 0 0 0 0 0 0 0 0 0 0 0 0 0 0 0.15 0"/>
<feBlend mode="normal" in2="effect1_dropShadow_51655_5115" result="effect2_dropShadow_51655_5115"/>
<feBlend mode="normal" in="SourceGraphic" in2="effect2_dropShadow_51655_5115" result="shape"/>
</filter>
<clipPath id="clip0_51655_5115">
<rect x="11" y="7" width="221" height="56" rx="16" fill="white"/>
</clipPath>
</defs>
</svg>
